<svg xmlns="http://www.w3.org/2000/svg" viewBox="0 0 119.78 180.58">
  <path d="M119.78 59.45c.2 13.74-4.23 26.42-11.83 36.63-.05.06-.09.12-.13.18-24.65 33.21-39.99 41.68-44.47 81.23-.2 1.76-1.68 3.1-3.46 3.1-1.77 0-3.26-1.34-3.46-3.1-4.48-39.54-19.82-48.02-44.47-81.23-.05-.06-.09-.12-.13-.18A59.702 59.702 0 010 60.33C0 27.32 26.7.55 59.68.43c32.64-.11 59.63 26.38 60.1 59.01z" fill="#29abe2"/>
  <path d="M83.57 95.98l-1.52 2.86c-.09-.39-.64.26-1.7.45 0 1.27.87 3.53 1.77 3.74-.95-1.48 1.77-5.16 1.44-7.06zm-1.44 7.07l.02-.02h-.02v.02zm7.17-5.14c-2.09 2.69-6.7 2.82-5.55 7.36-.41-.9-.62-1.85-.62-2.86l-.98.62.17.11c-.93 1.85 1.11 3.1-.38 4.99-1 1.27-1.33 4.86 1.33 3.74 4.97-2.09 4.93-10.52 8.58-13.49l.28.56.58-2.6.04-.19-.37-2.58c-1.01.43-2.3 3.29-3.1 4.34zM38.38 15.96l1.26-.26c.22-1.38 1.45-3.31 1.51-4.65-.92.16-2.45 3.87-2.77 4.91zm14.99 8.58c1.87-.34-.13-.88 0 0z" fill="#006837"/>
  <path d="M118.86 50.34C114.21 21.85 89.43 0 59.57 0c-5.61 0-11.04.83-16.21 2.29-1.24.91-2.46 2.17-3.83 2.71-.74.27-4.19 1.1-4.46 2.19.42 1.46.08 1.61-.84 3.31l-.7.52-.07.13.76-.62c-.15.27-.31.58-.49.94-1.52.74-4.04.3-5.38 1.36-.93 2.75-3.41 5.24-4.97 7.53 3.93.62-.69 3.51-2.85 5.21-2.13 1.73-2.93 4.03-4.59 5.97-1.1 1.3-2.64 1.41-3.57 2.68-1.78 2.37-5.11 5.2-5.83 8.08-2.21 1.86-2.3 6.79-3.1 9.55-1.93 6.67-.16 14.46 5.41 19.43l8.57-.92c2.64-1.89 5.82-2.73 7.58.35 1.64 2.85 3.36-.29 5.05 1.05 0 1.72 1.93 3.91 1.5 6.11-3.09 3.32 4.85 9.52 6.56 12.38 1.03 1.71 3.33 6.15 3.01 8.05-2.95 2.97-.23 7.16 1.79 9.46 3.31 3.86 6.52 7.95 9.62 11.81 2.32.26 4.68.45 7.06.45 1.32 0 2.63-.1 3.94-.19 1.96-1.07 3.58-2.58 4.74-5.42.45-1.72 4.26-2.19 3.3-5.23-.94-3.05 1.46-4.58 4.26-6.21 3.81-2.19 4.89-4.77 4.31-9.18 1.07-1.5-2.84-7.14-1.5-9.83 1.7-3.41 3.18-5.61 5.46-8.69 3.94-5.39 7-8.27 8.82-14.92.89-3.25.96-4.13.7-7.07-2.18-.56-7.28 5.04-9.77 3.32-1.91-1.34-4.12-7.82-7.69-7.48-2.14-.9-4.72-7.35-6.12-10.1-1.66-3.2-5.25-5.4-6.2-9.55 1.31.04 9.41 6.05 8.86 9.1.73 1.74 4.41 6.24 6.19 6.82 1.2 2.35 1.56 5.43 3.04 7.66 1.19 1.78 10.25-4.76 11.26-5.97-.26-1.9 1.46-2.56 2.91-2.93.53-1.36.45-1.64 1.28-2.89.77-1.22-.21-2.77 1.02-2.68.33-1.65-.42-3.6-1.73-4.97-1.04-1.06-2.64-.66-3.76-1.7l-1.59-2.6c-.45 1.03.13 4.46-2.02 3.62-2.82.94-1.41-1.59-3.4-2.75-.18 3.11-1.15-.36-2.53-1.16-1.06-.6-3.28-2.56-3.31-3.88 3.12.08 4.61 3.04 8.06 4.09l2.09-.51c1.12-1.43 1.81 1.05 2.52 1.47 3.08 1.81 6.37-.74 9.4-.34 1.71 1.2 3.23 3.37 5.33 3.08.82 1.6-.66.35-.54.88.78 1.17 1.86 1.92 3.18 2.32l-.2-2.32c2.54 2.11 3.66 6.54 5.41 9.31.99 1.55 2.2 4.6 3.56 7.23zM76.49 4.52c1.04.31 2.1 2.52 3.09 2.75-1.15 1.22-2.88-1.22-3.27-1.86l.18-.89zM61.44 24.76c-.78-.58-1.63-.77-2.68.26-1.46 1.47-3.36-.51-5.34-.16-.2-1.38-4.64-1.47-5.47-.68-2.53 2.52.54 3.26-3.48 2.27-2.41-.58-1.53-2.82-4.78-2.11l-1.78-1.15c.04-1.69 1.97-2.95 2.12-4.6-2.47-2.35-12.3 5.66-14.8 3.64l7.36-6.37c1.56-2.88 5.18-3.65 7.19-4.97 2.12-1.41 3.21.88 4.32 2.8 2.26 3.87-2.67 1.98-2.56 4.11 2.56.98 2.42.34 4.1-1.58 1.15-1.28-.22-2.77 1.68-1.7 1.14-.99-6.22-5.26-2.12-6.36-.82.94 4.98 3.88 3.09 5.39 2.09 2.64.77 4.5 3.2 4.95.02-1.36-.14-1.17.08-2.02l.71.25c.24-1.2-1.51-2.07-.99-3.37.69.15.9.31.97.36 0-.03-.12-.24.02-.79h2.13c-1.4 1.81 1.21.99-.19 2.64.41 1.11 1.45 1.17 1.32 2.05-.05.76 7.12 0 8.36-.81-.09.49 1.1 10.53-2.47 7.95zm4.53-13.37c.15-.18-1.02-.21-.04.03-.58-.15-4.44 0-4.44-1.06-1.84.29-3.7 2.73-5.57 1.14-.9-1.68 1.19-2.75.71-4.32 1.81-2.09.56 0 2.48-.7l-.55.62c.13.06 10.77 2.13 7.4 4.29zm10.52 3.4c-1.53.1-2.74-2.81-1.78-3.2-.26-1.14-4.47-3.34-5.5-4.57 0-1.69 2.76-3.84 3.37-1.17L71.5 6.91c2.03 1.07 8.26 5.93 8.61 8.42-1.33.56-2.55.39-3.63-.53z" fill="#006837"/>
</svg>
